<?xml version="1.0" encoding="UTF-8" standalone="no"?>
<svg
   xmlns:dc="http://purl.org/dc/elements/1.1/"
   xmlns:cc="http://creativecommons.org/ns#"
   xmlns:rdf="http://www.w3.org/1999/02/22-rdf-syntax-ns#"
   xmlns:svg="http://www.w3.org/2000/svg"
   xmlns="http://www.w3.org/2000/svg"
   xmlns:sodipodi="http://sodipodi.sourceforge.net/DTD/sodipodi-0.dtd"
   xmlns:inkscape="http://www.inkscape.org/namespaces/inkscape"
   width="500"
   height="185"
   viewBox="0 0 500.00001 185"
   id="svg2"
   version="1.1"
   inkscape:version="1.0.2 (e86c870879, 2021-01-15, custom)"
   sodipodi:docname="logo-small.svg"
   inkscape:export-filename="C:\Users\gleasonj\Dropbox\swabq\southwesties-abq-logo.png"
   inkscape:export-xdpi="600"
   inkscape:export-ydpi="600">
  <defs
     id="defs4" />
  <sodipodi:namedview
     id="base"
     pagecolor="#f2f202"
     bordercolor="#666666"
     borderopacity="1.0"
     inkscape:pageopacity="0"
     inkscape:pageshadow="2"
     inkscape:zoom="1.7000128"
     inkscape:cx="290.28029"
     inkscape:cy="69.7083"
     inkscape:document-units="px"
     inkscape:current-layer="layer1"
     showgrid="false"
     inkscape:window-width="1920"
     inkscape:window-height="1001"
     inkscape:window-x="-9"
     inkscape:window-y="-9"
     inkscape:window-maximized="1"
     units="px"
     inkscape:document-rotation="0"
     inkscape:snap-global="false" />
  <metadata
     id="metadata7">
    <rdf:RDF>
      <cc:Work
         rdf:about="">
        <dc:format>image/svg+xml</dc:format>
        <dc:type
           rdf:resource="http://purl.org/dc/dcmitype/StillImage" />
        <dc:title />
      </cc:Work>
    </rdf:RDF>
  </metadata>
  <g
     inkscape:label="Layer 1"
     inkscape:groupmode="layer"
     id="layer1"
     transform="translate(0,-846.3622)"
     style="opacity:0.944075">
    <g
       style="font-style:normal;font-weight:normal;font-size:65.0944px;line-height:125%;font-family:sans-serif;letter-spacing:0px;word-spacing:0px;fill:#ffffff;fill-opacity:1;stroke:none;stroke-width:1px;stroke-linecap:butt;stroke-linejoin:miter;stroke-opacity:1"
       id="text4136"
       transform="matrix(1.1218386,0,0,1.1218386,-28.659039,382.25325)">
      <path
         id="path4141"
         style="font-style:normal;font-variant:normal;font-weight:100;font-stretch:normal;font-family:'AR BERKLEY';-inkscape-font-specification:'AR BERKLEY Thin';fill:#ffffff;fill-opacity:1"
         d="m 49.251916,471.34349 q -0.32326,1.05061 -2.82856,3.55592 -0.80817,0.80816 -2.42449,2.34365 l 0.72735,0.32327 q 5.81876,-0.64651 16.567316,-2.82856 14.70855,-2.90938 23.517516,-5.9804 12.041616,-4.12162 12.041616,-8.0008 0,-2.90939 -5.737946,-4.12163 -4.20244,-0.88898 -11.47591,-0.88898 -1.939586,0 -4.040806,0.0809 -2.10122,0 -4.36407,0.0808 -6.22285,0 -9.13224,-1.5355 -2.666926,-2.10123 -5.333866,-4.28326 -2.26285,-0.32327 -4.52571,-0.72735 -2.5053,-0.72735 -2.5053,-3.31347 0,-6.86937 10.66774,-13.9812 9.051416,-5.98041 22.305272,-10.34448 12.12244,-3.95999 19.234262,-3.95999 0.96979,0 1.85878,0.24244 0.96978,0.16164 2.18202,0.64653 l 1.61633,2.74776 q -0.64653,2.10122 -3.87918,6.14202 -3.15183,3.96001 -5.091418,4.9298 -1.131428,-0.40408 -1.535508,-1.21224 -0.40408,-0.88898 -0.24245,-2.10123 l -1.777956,-1.45469 q -3.71755,0 -12.28406,1.9396 -10.263656,2.34366 -16.890586,5.17222 -8.485706,3.63673 -8.485706,7.27347 0,2.0204 3.636726,2.82857 3.71755,0.80816 9.21305,0.80816 3.31347,0 5.9804,-0.0808 2.747746,-0.16164 4.929786,-0.32326 10.74856,0 15.678346,1.13141 10.182836,2.34368 10.182836,9.4555 0,4.20244 -3.95998,7.67754 -1.4547,1.29306 -7.596732,5.09143 -4.52571,3.31347 -9.05142,6.62693 -9.697936,4.76815 -27.396682,9.05142 -17.617936,4.28325 -28.124046,4.28325 -0.72734,0 -1.5355,-0.48491 -0.88898,-0.40407 -1.29306,-1.05059 0.80816,-2.10123 9.69794,-9.53632 8.970596,-7.35427 10.344476,-7.35427 l 1.13142,1.13142 z"
         inkscape:connector-curvature="0" />
      <path
         id="path4143"
         style="font-style:normal;font-variant:normal;font-weight:100;font-stretch:normal;font-family:'AR BERKLEY';-inkscape-font-specification:'AR BERKLEY Thin';fill:#ffffff;fill-opacity:1"
         d="m 132.2628,441.11823 q 1.69715,0 4.12163,3.15183 2.42448,3.15182 2.42448,5.01061 0,5.41467 -1.29307,10.58692 -1.21223,5.09142 -7.67753,10.10201 -6.46528,5.01062 -11.87998,5.01062 -2.82856,0 -5.09142,-1.61633 -2.58612,-1.85877 -2.58612,-4.60652 0,-2.4245 0.72734,-5.81876 0.80817,-3.39429 1.93959,-5.17224 2.42448,-3.63673 5.9804,-7.27346 4.52571,-4.60652 7.5159,-5.33387 0.56574,-1.45469 2.4245,-2.74776 1.85877,-1.29305 3.39428,-1.29305 z m -11.39509,25.45711 q 0,1.05061 0.32327,1.93958 0.32326,0.88897 1.13142,0.88897 2.34368,0 4.76816,-2.34366 3.15182,-3.07101 5.33387,-8.24325 -3.71755,-3.23266 -5.17223,-7.83917 -2.10123,2.58612 -4.28327,7.59673 -2.10122,4.92978 -2.10122,8.0008 z"
         inkscape:connector-curvature="0" />
      <path
         id="path4145"
         style="font-style:normal;font-variant:normal;font-weight:100;font-stretch:normal;font-family:'AR BERKLEY';-inkscape-font-specification:'AR BERKLEY Thin';fill:#ffffff;fill-opacity:1"
         d="m 152.29765,471.26268 q -2.0204,1.21223 -4.04081,2.42449 -0.9698,0.80815 -1.61632,1.0506 -0.56571,0.24245 -1.21225,0.24245 -1.29306,0 -2.99019,-1.77796 -1.61634,-1.85877 -1.61634,-3.15182 0,-2.82858 3.07102,-12.60733 3.15184,-9.85959 4.84897,-11.63754 0.56571,-0.56573 3.23265,-2.02042 2.66694,-1.5355 3.39428,-1.5355 0.9698,0 1.93959,1.93959 0.32327,0.64653 1.13143,2.90939 -3.55591,8.40489 -7.03101,16.72895 0,1.21225 0.96979,1.21225 1.53552,0 4.68734,-5.17224 2.90939,-4.84898 5.89958,-9.69794 3.63673,-5.17225 6.46531,-5.17225 1.05061,0 1.77796,1.69714 0.72734,1.69715 0.72734,2.9902 0,2.34368 -0.72734,5.89958 -1.61632,7.92 -1.61632,9.85959 0,0.80816 0.32326,2.26285 0.40407,1.37388 0.48489,1.9396 -0.64653,1.5355 -2.9902,3.5559 -2.34366,1.93959 -3.87917,1.93959 -0.80817,0 -2.02042,-1.29305 -1.13143,-1.37389 -1.13143,-2.26286 0,-2.58612 0.40409,-5.41467 0.40409,-2.82858 0.80816,-5.57634 -2.10122,2.74776 -4.20244,5.49551 -2.9902,3.63672 -5.09142,5.17224 z"
         inkscape:connector-curvature="0" />
      <path
         id="path4147"
         style="font-style:normal;font-variant:normal;font-weight:100;font-stretch:normal;font-family:'AR BERKLEY';-inkscape-font-specification:'AR BERKLEY Thin';fill:#ffffff;fill-opacity:1"
         d="m 185.20246,464.07003 q 0,1.53551 0.96981,2.50531 0.96979,0.96979 2.58612,0.96979 1.45468,0 3.31346,-0.64653 3.15184,-1.13144 3.23265,-1.13144 l 1.13142,0.56571 0.48491,1.13144 q -1.05062,3.15184 -5.89959,5.41469 -4.28326,2.02041 -8.00081,2.02041 -3.55591,0 -5.73794,-2.74776 -2.18205,-2.74776 -2.18205,-6.46529 0,-1.37388 1.45469,-4.92979 1.05063,-2.58612 2.18205,-5.17225 -0.80818,0 -1.61633,0 -0.96979,-0.16163 -1.37387,-0.96978 0.40408,-1.53551 2.58612,-3.07102 2.99019,-2.10122 3.31346,-2.50531 0.40408,-0.48488 0.72735,-1.13142 0.32326,-0.64653 0.4849,-0.9698 1.29305,-2.74775 2.50529,-5.25304 2.50531,-5.09143 3.55592,-5.73797 0.32327,-0.16162 1.53551,-0.48489 1.29305,-0.32327 1.93959,-0.64653 1.21224,-0.64653 1.37388,-0.72734 0.80816,-0.32328 1.5355,-0.32328 1.21225,0 1.61633,1.13144 0.40408,1.0506 0.40408,2.58613 0,0.48487 -0.56572,1.45468 -0.56571,0.96979 -1.05061,1.77796 l -4.04081,7.83918 q 1.69714,0 2.82857,0.16163 1.21224,0.0808 2.26285,0.56571 l 0.40409,1.21224 q 0,1.69715 -1.93959,3.55591 -1.85878,1.77797 -3.55592,1.77797 h -3.79836 q -1.4547,2.99019 -2.10122,4.92978 -0.56573,1.93958 -0.56573,3.31346 z"
         inkscape:connector-curvature="0" />
      <path
         id="path4149"
         style="font-style:normal;font-variant:normal;font-weight:100;font-stretch:normal;font-family:'AR BERKLEY';-inkscape-font-specification:'AR BERKLEY Thin';fill:#ffffff;fill-opacity:1"
         d="m 225.74696,444.59333 q 1.29305,0 2.0204,0.96978 0.80815,0.88898 0.80815,2.18204 0,3.07102 -0.96979,7.59673 -2.10122,9.85957 -2.10122,12.60733 l 0.80817,1.61632 1.29305,0.32327 0.56572,0.80816 -0.24245,1.77795 q -0.24245,0.24246 -3.39428,1.85878 -3.07102,1.69714 -3.63673,1.93959 -4.92979,-0.80816 -4.92979,-5.25306 0,-2.90937 0.9698,-6.46529 2.74775,-10.02121 2.82856,-10.82938 l -0.4849,-0.48489 q -3.71754,2.26286 -7.67753,7.91998 -2.58612,3.71755 -5.81878,9.69795 -2.90938,1.77796 -6.0612,2.82858 l -1.29306,-0.88899 -0.32327,-1.37387 q 0,-1.0506 0.96978,-3.71755 1.37388,-3.79836 2.82858,-7.67754 1.29306,-5.17224 3.4751,-10.99101 0.56571,-1.45469 7.35427,-17.94119 2.74775,-6.70775 4.04081,-8.32407 2.42449,-2.99021 8.16243,-4.52572 l 1.05062,0.56572 q 0.4849,0.72735 0.4849,1.21224 0,1.69714 -3.23265,9.77877 -1.93959,4.92979 -6.38448,15.11264 -2.34367,5.33385 -4.60652,10.58692 3.87917,-4.12164 6.22285,-6.30368 5.01059,-4.60651 7.27346,-4.60651 z"
         inkscape:connector-curvature="0" />
      <path
         id="path4151"
         style="font-style:normal;font-variant:normal;font-weight:100;font-stretch:normal;font-family:'AR BERKLEY';-inkscape-font-specification:'AR BERKLEY Thin';fill:#ffffff;fill-opacity:1"
         d="m 235.29969,477.72797 q -1.69714,0 -2.74776,-1.37387 -0.96979,-1.29307 -0.96979,-3.07101 0,-3.71756 4.4449,-15.67836 3.95999,-10.5061 9.29386,-21.73956 5.41469,-11.31426 7.75836,-13.25385 1.29306,-1.05062 3.23265,-1.9396 1.93959,-0.96979 3.79836,-1.37386 l 1.37387,0.64651 q 1.21225,1.93959 1.77797,2.90939 1.13142,1.85878 1.13142,3.23265 -2.82856,4.92979 -5.57632,9.85957 -6.14203,10.9102 -10.99101,19.63834 -6.4653,11.71837 -7.67754,14.38528 6.22286,-6.0612 12.76897,-13.4963 4.12163,-4.68734 11.87997,-14.14283 5.8996,-7.19265 11.79918,-14.46611 1.85876,-3.07102 2.82857,-4.5257 1.05061,-1.4547 2.18204,-2.26285 0.56571,-0.40409 1.93958,-0.88898 1.37388,-0.56572 2.26286,-0.80817 l 1.29306,0.56571 q 0.24245,0.56571 0.40408,2.10123 0.16164,1.5355 0.16164,2.42447 -3.23266,6.95021 -5.57634,14.62775 -2.66692,8.4857 -2.66692,13.73875 0,6.38448 2.34368,10.91019 3.07101,5.81877 8.88977,5.81877 5.98039,0 9.29387,-6.86938 2.66693,-5.49549 2.66693,-12.20324 0,-7.91999 -2.74776,-13.41549 -3.87917,-6.06122 -7.67753,-12.20325 0.24245,-0.64654 2.0204,-2.34368 3.55593,-3.4751 4.4449,-3.4751 4.60652,0 9.29387,9.9404 4.20244,8.88979 4.20244,14.46611 0,10.34448 -7.4351,21.73955 -8.16244,12.52652 -17.77957,12.52652 -10.02122,0 -14.78936,-7.83917 -3.87919,-6.30367 -3.87919,-16.80977 0,-2.02042 0.0808,-3.15183 0.0808,-1.13143 0.32326,-3.47511 -5.01061,6.46531 -9.05141,11.15264 -7.03102,8.16243 -13.01141,13.49631 -7.4351,6.62693 -11.31428,6.62693 z"
         inkscape:connector-curvature="0" />
      <path
         id="path4153"
         style="font-style:normal;font-variant:normal;font-weight:100;font-stretch:normal;font-family:'AR BERKLEY';-inkscape-font-specification:'AR BERKLEY Thin';fill:#ffffff;fill-opacity:1"
         d="m 333.27295,470.77778 q 1.05059,0 2.26285,-0.40407 3.55592,-1.21226 3.71754,-1.21226 l 1.21225,0.40408 0.40408,1.05062 q 0,2.0204 -4.68734,3.63673 -3.79837,1.29306 -6.4653,1.29306 -1.21224,0 -1.77796,-0.16163 -0.48488,-0.0809 -3.4751,-1.05062 -3.47509,-0.9698 -6.95019,-1.93959 -2.66693,-1.37388 -2.66693,-6.30366 0,-7.19263 8.0008,-15.19345 8.0008,-8.0008 15.27426,-8.0008 2.10122,0 3.23265,1.5355 1.21226,1.4547 1.21226,3.71754 0,2.18204 -0.32327,3.31348 -0.24244,1.05059 -0.96979,2.0204 -1.4547,2.99019 -2.82858,5.98041 -2.42449,3.07102 -5.33387,5.17223 -2.90937,2.10123 -6.4653,2.90938 2.82857,3.23265 6.62694,3.23265 z m -6.9502,-9.53632 q 0,1.37388 0.9698,1.37388 1.85876,0 5.73795,-4.60652 3.87918,-4.60653 3.87918,-7.11183 0,-1.61632 -1.21225,-1.61632 -2.74776,0 -6.06121,4.60651 -3.31347,4.52572 -3.31347,7.35428 z"
         inkscape:connector-curvature="0" />
      <path
         id="path4155"
         style="font-style:normal;font-variant:normal;font-weight:100;font-stretch:normal;font-family:'AR BERKLEY';-inkscape-font-specification:'AR BERKLEY Thin';fill:#ffffff;fill-opacity:1"
         d="m 360.92345,450.89699 q 2.10123,3.4751 3.71756,6.54612 1.69714,2.99019 1.69714,5.57631 0,5.25306 -5.4955,8.80897 -4.84899,3.15183 -10.4253,3.15183 -2.58612,0 -4.5257,-0.72734 -2.82858,-1.05062 -2.82858,-3.15184 0,-1.93959 2.02041,-4.60653 2.10123,-2.66693 3.96,-2.66693 1.61632,0 3.23265,2.9094 1.69713,2.82855 2.9902,2.82855 0.96978,0 0.96978,-1.29305 0,-4.84898 -2.82856,-9.05143 -2.82857,-4.20244 -2.82857,-5.4955 0,-2.90938 5.41468,-7.5159 5.49551,-4.68734 8.64735,-4.68734 1.21223,0 2.42448,0.64653 1.21225,0.64652 1.21225,1.77795 0,2.5053 -0.48491,4.12163 -0.72734,2.58612 -2.66693,2.58612 -1.21224,0 -2.0204,-0.40409 -0.80817,-0.48489 -1.69714,-1.45468 -0.48491,1.13143 -0.48491,2.10122 z"
         inkscape:connector-curvature="0" />
      <path
         id="path4157"
         style="font-style:normal;font-variant:normal;font-weight:100;font-stretch:normal;font-family:'AR BERKLEY';-inkscape-font-specification:'AR BERKLEY Thin';fill:#ffffff;fill-opacity:1"
         d="m 381.0871,464.07003 q 0,1.53551 0.96981,2.50531 0.96978,0.96979 2.58611,0.96979 1.45469,0 3.31347,-0.64653 3.15182,-1.13144 3.23263,-1.13144 l 1.13143,0.56571 0.48491,1.13144 q -1.05062,3.15184 -5.89959,5.41469 -4.28325,2.02041 -8.00081,2.02041 -3.5559,0 -5.73795,-2.74776 -2.18203,-2.74776 -2.18203,-6.46529 0,-1.37388 1.45468,-4.92979 1.05062,-2.58612 2.18205,-5.17225 -0.80817,0 -1.61634,0 -0.96978,-0.16163 -1.37387,-0.96978 0.40409,-1.53551 2.58613,-3.07102 2.99019,-2.10122 3.31347,-2.50531 0.40407,-0.48488 0.72734,-1.13142 0.32327,-0.64653 0.48488,-0.9698 1.29307,-2.74775 2.50531,-5.25304 2.50532,-5.09143 3.55592,-5.73797 0.32327,-0.16162 1.5355,-0.48489 1.29307,-0.32327 1.9396,-0.64653 1.21225,-0.64653 1.37386,-0.72734 0.80818,-0.32328 1.53551,-0.32328 1.21226,0 1.61634,1.13144 0.40407,1.0506 0.40407,2.58613 0,0.48487 -0.56571,1.45468 -0.56571,0.96979 -1.0506,1.77796 l -4.04083,7.83918 q 1.69714,0 2.82857,0.16163 1.21226,0.0808 2.26286,0.56571 l 0.40408,1.21224 q 0,1.69715 -1.93959,3.55591 -1.85878,1.77797 -3.55592,1.77797 h -3.79834 q -1.4547,2.99019 -2.10125,4.92978 -0.5657,1.93958 -0.5657,3.31346 z"
         inkscape:connector-curvature="0" />
      <path
         id="path4159"
         style="font-style:normal;font-variant:normal;font-weight:100;font-stretch:normal;font-family:'AR BERKLEY';-inkscape-font-specification:'AR BERKLEY Thin';fill:#ffffff;fill-opacity:1"
         d="m 403.2055,440.39088 q 0,-0.56571 0.32327,-1.21225 0.40407,-0.64652 0.88897,-1.21225 l 1.21223,-1.85876 q 0.4041,-0.72734 2.9094,-1.61633 2.58612,-0.96979 3.79834,-0.96979 2.18205,0 2.18205,2.34367 0,0.64652 -0.40408,1.61634 -0.32327,0.88897 -0.4849,1.29304 -0.72735,1.77797 -1.21224,2.26285 -0.40407,0.48491 -2.18202,0.80817 -1.77798,0.32327 -3.15185,0.56571 -1.37387,0.24246 -2.18203,0.24246 -0.88898,0 -1.29307,-0.64653 -0.40407,-0.72735 -0.40407,-1.61633 z m 8.72814,6.30366 q 0,1.05061 -3.39427,7.75836 -3.39428,6.70774 -3.39428,10.42529 0,1.21225 0.40407,1.93959 0.40408,0.64653 1.4547,0.64653 1.13142,0 2.99019,-1.21224 1.85878,-1.21224 2.34366,-1.21224 1.3739,0 1.3739,1.37388 0,2.34366 -3.39429,4.36407 -2.66693,1.53551 -5.57631,2.26284 -0.88898,0.16164 -2.58613,1.05062 -1.61633,0.80817 -2.66694,0.80817 -2.10122,0 -3.5559,-1.61632 -1.37387,-1.69715 -1.37387,-3.8792 0,-1.37387 0.24244,-2.42447 0.24245,-1.05062 0.80816,-2.5053 l 5.33388,-13.41551 q 0.80815,-2.10121 1.37386,-2.82855 0.64654,-0.72735 2.5053,-1.37388 1.85878,-0.64653 3.31347,-1.53551 0.16163,-0.16163 1.13142,-0.56571 0.96982,-0.40408 1.05062,-0.40408 0.88898,0 1.21224,0.64652 0.40408,0.64654 0.40408,1.69714 z"
         inkscape:connector-curvature="0" />
      <path
         id="path4161"
         style="font-style:normal;font-variant:normal;font-weight:100;font-stretch:normal;font-family:'AR BERKLEY';-inkscape-font-specification:'AR BERKLEY Thin';fill:#ffffff;fill-opacity:1"
         d="m 434.60891,470.77778 q 1.0506,0 2.26285,-0.40407 3.55592,-1.21226 3.71754,-1.21226 l 1.21225,0.40408 0.40408,1.05062 q 0,2.0204 -4.68734,3.63673 -3.79836,1.29306 -6.46531,1.29306 -1.21224,0 -1.77795,-0.16163 -0.48488,-0.0809 -3.4751,-1.05062 -3.47509,-0.9698 -6.95018,-1.93959 -2.66694,-1.37388 -2.66694,-6.30366 0,-7.19263 8.00081,-15.19345 8.00079,-8.0008 15.27425,-8.0008 2.10123,0 3.23266,1.5355 1.21225,1.4547 1.21225,3.71754 0,2.18204 -0.32327,3.31348 -0.24244,1.05059 -0.9698,2.0204 -1.45469,2.99019 -2.82857,5.98041 -2.42447,3.07102 -5.33387,5.17223 -2.90938,2.10123 -6.4653,2.90938 2.82857,3.23265 6.62694,3.23265 z m -6.9502,-9.53632 q 0,1.37388 0.9698,1.37388 1.85877,0 5.73795,-4.60652 3.87918,-4.60653 3.87918,-7.11183 0,-1.61632 -1.21225,-1.61632 -2.74775,0 -6.06121,4.60651 -3.31347,4.52572 -3.31347,7.35428 z"
         inkscape:connector-curvature="0" />
      <path
         id="path4163"
         style="font-style:normal;font-variant:normal;font-weight:100;font-stretch:normal;font-family:'AR BERKLEY';-inkscape-font-specification:'AR BERKLEY Thin';fill:#ffffff;fill-opacity:1"
         d="m 462.2594,450.89699 q 2.10122,3.4751 3.71755,6.54612 1.69713,2.99019 1.69713,5.57631 0,5.25306 -5.49549,8.80897 -4.84897,3.15183 -10.4253,3.15183 -2.5861,0 -4.52571,-0.72734 -2.82856,-1.05062 -2.82856,-3.15184 0,-1.93959 2.02041,-4.60653 2.10121,-2.66693 3.95998,-2.66693 1.61633,0 3.23266,2.9094 1.69714,2.82855 2.99021,2.82855 0.96979,0 0.96979,-1.29305 0,-4.84898 -2.82857,-9.05143 -2.82858,-4.20244 -2.82858,-5.4955 0,-2.90938 5.4147,-7.5159 5.49549,-4.68734 8.64733,-4.68734 1.21225,0 2.42448,0.64653 1.21225,0.64652 1.21225,1.77795 0,2.5053 -0.4849,4.12163 -0.72735,2.58612 -2.66694,2.58612 -1.21224,0 -2.0204,-0.40409 -0.80817,-0.48489 -1.69715,-1.45468 -0.48489,1.13143 -0.48489,2.10122 z"
         inkscape:connector-curvature="0" />
      <g
         id="g1744"
         transform="translate(-72.774294)"
         style="fill:#ffffff;fill-opacity:1">
        <g
           id="g4286"
           style="fill:#ffffff;fill-opacity:1;stroke-width:0.7051px"
           transform="matrix(2.0114014,0,0,1,-696.90157,6.9952252)">
          <rect
             style="font-style:normal;font-weight:normal;font-size:65.0944px;line-height:125%;font-family:sans-serif;letter-spacing:0px;word-spacing:0px;opacity:1;fill:#ffffff;fill-opacity:1;stroke:none;stroke-width:0.7051;stroke-linecap:round;stroke-linejoin:miter;stroke-miterlimit:4;stroke-dasharray:none;stroke-dashoffset:0;stroke-opacity:1"
             id="rect4171-38-7"
             width="5.0507627"
             height="59.700672"
             x="518.45593"
             y="-615.53711"
             transform="rotate(90)" />
          <rect
             style="font-style:normal;font-weight:normal;font-size:65.0944px;line-height:125%;font-family:sans-serif;letter-spacing:0px;word-spacing:0px;opacity:1;fill:#ffffff;fill-opacity:1;stroke:none;stroke-width:0.7051;stroke-linecap:round;stroke-linejoin:miter;stroke-miterlimit:4;stroke-dasharray:none;stroke-dashoffset:0;stroke-opacity:1"
             id="rect4171-38-7-3"
             width="5.0507627"
             height="59.700672"
             x="511.40518"
             y="-615.53711"
             transform="rotate(90)" />
          <rect
             style="font-style:normal;font-weight:normal;font-size:65.0944px;line-height:125%;font-family:sans-serif;letter-spacing:0px;word-spacing:0px;opacity:1;fill:#ffffff;fill-opacity:1;stroke:none;stroke-width:0.7051;stroke-linecap:round;stroke-linejoin:miter;stroke-miterlimit:4;stroke-dasharray:none;stroke-dashoffset:0;stroke-opacity:1"
             id="rect4171-38-7-9"
             width="5.0507627"
             height="37.582249"
             x="504.35443"
             y="-593.4187"
             transform="rotate(90)" />
          <rect
             style="font-style:normal;font-weight:normal;font-size:65.0944px;line-height:125%;font-family:sans-serif;letter-spacing:0px;word-spacing:0px;fill:#ffffff;fill-opacity:1;stroke:none;stroke-width:0.7051;stroke-linecap:round;stroke-linejoin:miter;stroke-miterlimit:4;stroke-dasharray:none;stroke-dashoffset:0;stroke-opacity:1"
             id="rect4171-38-7-9-6"
             width="5.0507627"
             height="37.582249"
             x="525.28949"
             y="-593.4187"
             transform="rotate(90)" />
        </g>
        <g
           id="g877"
           transform="matrix(0.69653604,0,0,1,13.503454,5.3483628)"
           style="fill:#ffffff;fill-opacity:1;stroke-width:1.1982px">
          <rect
             style="font-style:normal;font-weight:normal;font-size:65.0944px;line-height:125%;font-family:sans-serif;letter-spacing:0px;word-spacing:0px;fill:#ffffff;fill-opacity:1;stroke:none;stroke-width:1.89879;stroke-linecap:round;stroke-linejoin:miter;stroke-miterlimit:4;stroke-dasharray:none;stroke-dashoffset:0;stroke-opacity:1"
             id="rect4171-2"
             width="5.0507627"
             height="174.33841"
             x="-532.20435"
             y="234.39639"
             transform="rotate(-90)" />
          <rect
             style="font-style:normal;font-weight:normal;font-size:65.0944px;line-height:125%;font-family:sans-serif;letter-spacing:0px;word-spacing:0px;fill:#ffffff;fill-opacity:1;stroke:none;stroke-width:1.89879;stroke-linecap:round;stroke-linejoin:miter;stroke-miterlimit:4;stroke-dasharray:none;stroke-dashoffset:0;stroke-opacity:1"
             id="rect4171-3-3"
             width="5.0507627"
             height="208.90088"
             x="-525.15356"
             y="127.33688"
             transform="rotate(-90)" />
          <rect
             style="font-style:normal;font-weight:normal;font-size:65.0944px;line-height:125%;font-family:sans-serif;letter-spacing:0px;word-spacing:0px;fill:#ffffff;fill-opacity:1;stroke:none;stroke-width:1.89879;stroke-linecap:round;stroke-linejoin:miter;stroke-miterlimit:4;stroke-dasharray:none;stroke-dashoffset:0;stroke-opacity:1"
             id="rect4171-1-8"
             width="5.0507627"
             height="216.30553"
             x="-518.10284"
             y="127.33688"
             transform="rotate(-90)" />
          <rect
             style="font-style:normal;font-weight:normal;font-size:65.0944px;line-height:125%;font-family:sans-serif;letter-spacing:0px;word-spacing:0px;fill:#ffffff;fill-opacity:1;stroke:none;stroke-width:1.89879;stroke-linecap:round;stroke-linejoin:miter;stroke-miterlimit:4;stroke-dasharray:none;stroke-dashoffset:0;stroke-opacity:1"
             id="rect4171-12-6"
             width="5.0507627"
             height="117.97865"
             x="-511.05203"
             y="234.76199"
             transform="rotate(-90)" />
        </g>
        <g
           aria-label="Q"
           id="text955"
           style="font-style:normal;font-weight:normal;font-size:83.234px;line-height:1.25;font-family:sans-serif;letter-spacing:0px;word-spacing:0px;fill:#ffffff;fill-opacity:1;stroke:none;stroke-width:0.922207px;stroke-linecap:butt;stroke-linejoin:miter;stroke-opacity:1"
           transform="translate(-110.53284)">
          <path
             d="m 530.21873,557.95341 q 0.83234,0 2.24732,-0.74911 3.74553,-1.99761 4.07846,-2.08085 l 1.41498,0.49941 0.49941,1.24851 q -0.49941,1.49821 -4.74434,5.57667 -4.24494,4.07847 -5.57668,4.07847 -2.91319,0 -10.40425,-2.82996 -7.49106,-2.82995 -19.22705,-8.48986 -1.74792,0.16646 -3.6623,0.33293 -1.83115,0.16647 -3.32936,0.16647 -5.65991,0 -11.65276,-1.58145 -7.74076,-1.99761 -9.73838,-5.41021 1.41498,-3.07965 5.57668,-4.6611 3.32936,-1.24851 7.40783,-1.24851 4.1617,0 9.3222,1.74791 11.81923,3.99524 14.64919,3.99524 8.15693,0 15.73122,-7.15813 7.5743,-7.15812 7.5743,-15.23182 0,-8.65634 -6.32579,-14.81565 -6.24255,-6.24255 -14.98212,-6.24255 -8.48986,0 -14.14978,4.99404 -5.57667,4.9108 -5.57667,13.31744 0,0.58264 0.33293,1.58144 0.74911,2.16409 0.74911,2.82996 0,3.41259 -2.16409,6.65872 -2.16408,3.24613 -5.41021,4.4114 -2.24731,-0.99881 -3.16289,-3.49583 -0.91557,-2.49702 -0.91557,-5.32697 0,-11.65276 12.31863,-22.47318 12.31863,-10.90366 24.05463,-10.90366 8.90603,0 16.31386,6.90843 7.40783,6.90842 7.40783,15.81446 0,10.65395 -7.99047,19.72645 -6.82519,7.74077 -17.72884,12.65157 7.07489,3.16289 8.40663,3.6623 6.24255,2.49702 8.65634,2.49702 z"
             style="font-style:normal;font-variant:normal;font-weight:normal;font-stretch:normal;font-family:'AR BERKLEY';-inkscape-font-specification:'AR BERKLEY';fill:#ffffff;fill-opacity:1;stroke-width:0.922207px"
             id="path879" />
        </g>
        <path
           id="path4165"
           style="font-style:normal;font-variant:normal;font-weight:100;font-stretch:normal;font-size:65.0944px;line-height:125%;font-family:'AR BERKLEY';-inkscape-font-specification:'AR BERKLEY Thin';letter-spacing:0px;word-spacing:0px;fill:#ffffff;fill-opacity:1;stroke:none;stroke-width:1px;stroke-linecap:butt;stroke-linejoin:miter;stroke-opacity:1"
           d="m 225.14429,574.55384 -1.51432,-0.67304 -0.42066,-1.00954 c 2.13127,-4.15037 5.74883,-9.36637 10.85266,-15.64801 9.4035,-12.8499 11.13187,-15.75506 16.74167,-22.04184 0.95347,-1.06563 4.51493,-5.13187 10.6844,-12.19871 6.16946,-7.12293 10.96481,-12.56328 14.38606,-16.32105 5.10383,-5.60859 8.10443,-8.60919 9.0018,-9.0018 l 1.59846,1.26193 c 0.11217,0.67304 0.25239,1.31803 0.42065,1.93498 0,2.97255 -0.28043,6.56206 -0.8413,10.76852 -1.28998,9.70287 -1.93497,15.84429 -1.93497,18.42425 l 0.16826,6.0573 c 0.42212,3.73866 0.0866,1.90366 0.42064,4.3747 0,2.0191 0.30848,4.2345 0.92543,6.6462 0.67303,2.4117 1.31802,4.73927 1.93496,6.98271 l -0.5889,1.26194 -1.68258,0.84129 c -1.96301,-0.28043 -3.25298,-0.47674 -3.86993,-0.58891 -0.61695,-0.11217 -1.59846,-0.44869 -2.94453,-1.00954 -0.95345,-1.79476 -1.7667,-3.8419 -2.43973,-6.14143 -0.61695,-2.29953 0.19247,-7.64353 -0.25622,-10.27957 -7.37674,-0.0546 -12.59551,0.0914 -20.25544,0.1486 -2.35561,3.36517 -7.5594,11.14053 -9.85893,14.50568 -4.26254,6.11338 -7.824,10.79657 -10.68438,14.04956 -4.20646,4.8234 -7.48749,7.37531 -9.8431,7.65574 z m 48.96313,-42.82168 c 0,-6.39381 0.92542,-12.98393 2.77627,-19.77034 l -17.67092,20.67992 c 1.96301,0 6.60593,0.63133 8.17635,0.7435 3.61737,-0.26184 4.44787,0.0847 6.7183,-1.65308 z"
           inkscape:connector-curvature="0"
           sodipodi:nodetypes="ccccccccccccccccccsccccccscccccc" />
        <path
           id="path4167"
           style="font-style:normal;font-variant:normal;font-weight:100;font-stretch:normal;font-size:65.0944px;line-height:125%;font-family:'AR BERKLEY';-inkscape-font-specification:'AR BERKLEY Thin';letter-spacing:0px;word-spacing:0px;fill:#ffffff;fill-opacity:1;stroke:none;stroke-width:1px;stroke-linecap:butt;stroke-linejoin:miter;stroke-opacity:1"
           d="m 355.62712,535.09732 q 0,9.25419 -14.04955,15.47974 -11.44156,5.04774 -22.12594,5.04774 -3.70169,0 -7.06685,-1.4302 -4.45883,-1.93496 -4.45883,-5.04773 0,-0.75716 3.53342,-9.08594 2.35561,-5.63665 6.81445,-15.47974 3.70167,-8.32878 4.20645,-9.00182 0.58891,-0.67302 4.37471,-3.28103 3.86993,-2.69212 4.37471,-2.69212 0.67304,0 1.17781,0.50478 0.5889,0.42064 0.84129,1.1778 -0.5889,3.1969 -4.45884,10.51612 -3.44929,6.39381 -6.98271,13.04001 -3.53342,6.64619 -3.53342,9.00181 0,3.1969 4.03819,5.04773 3.11277,1.4302 6.81446,1.4302 5.63665,0 10.26374,-2.77626 5.46839,-3.28103 5.46839,-8.58116 0,-4.12232 -3.11277,-5.72077 -2.27149,-1.1778 -6.81445,-1.1778 -1.00956,0 -2.94453,0.0841 -1.93496,0.0841 -2.77626,0.0841 -0.75716,0 -1.34606,-0.50477 -0.58891,-0.50478 -0.84129,-1.26194 0.16826,-0.25238 11.69394,-10.17961 4.29057,-3.70168 4.29057,-7.06684 0,-2.69213 -4.29057,-4.12233 -4.29058,-1.51432 -12.11458,-1.51432 -12.36698,0 -23.89266,3.70168 -1.93496,0.58891 -3.28103,1.09369 -2.69212,1.00954 -3.1969,1.51432 -0.50478,0.50476 -1.09368,1.09367 -0.58891,0.5889 -1.34607,0.5889 -2.86038,0 -3.53341,-2.35561 l 0.50477,-1.09368 q 11.0209,-6.64619 21.36878,-10.01136 11.52568,-3.78581 23.21962,-3.78581 6.73031,0 11.44154,2.10323 6.47794,2.8604 6.47794,8.74943 0,4.29057 -5.46838,9.50658 -2.94452,2.77626 -9.2542,7.15097 6.30968,0 10.68439,1.59845 6.39381,2.35562 6.39381,7.65575 z"
           inkscape:connector-curvature="0" />
      </g>
    </g>
  </g>
</svg>
